<?xml version="1.0" encoding="utf-8"?>
<!-- Generator: Adobe Illustrator 29.3.1, SVG Export Plug-In . SVG Version: 9.03 Build 55982)  -->
<svg version="1.1" id="Layer_1" xmlns="http://www.w3.org/2000/svg" xmlns:xlink="http://www.w3.org/1999/xlink" x="0px" y="0px"
	 viewBox="0 0 223.6 59.6" style="enable-background:new 0 0 223.6 59.6;" xml:space="preserve">
<style type="text/css">
	.Drop_x0020_Shadow{fill:none;}
	.Outer_x0020_Glow_x0020_5_x0020_pt{fill:none;}
	.Blue_x0020_Neon{fill:none;stroke:#8AACDA;stroke-width:7;stroke-linecap:round;stroke-linejoin:round;}
	.Chrome_x0020_Highlight{fill:url(#SVGID_1_);stroke:#FFFFFF;stroke-width:0.3629;stroke-miterlimit:1;}
	.Jive_GS{fill:#FFDD00;}
	.Alyssa_GS{fill:#A6D0E4;}
	.st0{fill:#363636;}
</style>
<linearGradient id="SVGID_1_" gradientUnits="userSpaceOnUse" x1="-307.8083" y1="-44.7963" x2="-307.8083" y2="-45.7963">
	<stop  offset="0" style="stop-color:#656565"/>
	<stop  offset="0.618" style="stop-color:#1B1B1B"/>
	<stop  offset="0.6292" style="stop-color:#545454"/>
	<stop  offset="0.9831" style="stop-color:#3E3E3E"/>
</linearGradient>
<g>
	<g>
		<path d="M94.7,33.5c-2.4-2.5-6.2-4.7-11.3-6.8c-4.1-1.7-7.2-3.3-9.4-4.9c-2.1-1.6-3.2-3.7-3.2-6.2c0-1.2,0.2-2.2,0.8-3.2
			c0.5-1,1.2-1.8,2-2.5c0.9-0.7,1.9-1.2,3-1.5C77.8,8.2,79,8,80.3,8c3.3,0,5.9,0.7,7.9,2.1c1.9,1.4,3.6,3.6,5,6.7
			c0.2,0.3,0.4,0.6,0.7,0.9c0.3,0.3,0.8,0.4,1.5,0.4c0.3,0,0.7,0,1.2-0.2l0,0c-0.3-1.6-0.6-3.3-0.8-5.2c-0.2-1.8-0.3-3.6-0.4-5.2
			l0,0c-2.9-1.1-5.5-1.9-7.8-2.4c-2.3-0.5-4.7-0.7-7.2-0.7c-2.4,0-4.6,0.4-6.5,1.1C72,6.3,70.3,7.3,69,8.6c-1.4,1.3-2.4,2.8-3.1,4.5
			c-0.7,1.7-1.1,3.6-1.1,5.6c0,2.2,0.4,4.2,1.1,5.8c0.7,1.6,1.8,3.1,3.1,4.3c1.3,1.2,2.9,2.3,4.8,3.2c1.9,0.9,4,1.8,6.3,2.7
			c3.5,1.3,6.2,2.7,8.1,4.3c1.9,1.6,2.9,3.8,2.9,6.6c0,1.2-0.2,2.4-0.7,3.4c-0.4,1.1-1.1,2-1.9,2.9c-0.9,0.9-1.9,1.5-3.2,2
			c-1.3,0.5-2.8,0.7-4.5,0.7c-3.8,0-6.8-0.9-8.9-2.7c-1.1-0.9-2-2.1-2.9-3.5c-0.9-1.4-1.6-3.1-2.3-5c-0.3-0.6-0.6-1.1-0.9-1.4
			c-0.3-0.3-0.8-0.4-1.5-0.4c-0.5,0-1,0.1-1.3,0.2c0,0,0,0,0,0c0.4,2.1,0.8,4.2,1.1,6.2c0.3,2.1,0.6,4.2,0.7,6.5c0,0,0,0,0,0
			c1.9,1.1,4.2,2,6.9,2.7c2.7,0.7,5.7,1,9,1c3.2,0,5.9-0.4,8.1-1.2c2.2-0.8,4.1-1.9,5.5-3.3c1.4-1.4,2.5-3.1,3.1-5
			c0.7-1.9,1-3.9,1-6.1C98.4,39.1,97.1,36,94.7,33.5z"/>
		<path d="M114.8,55.6c-0.4-0.1-0.7-0.1-1-0.2c-0.8-0.2-1.6-0.4-2.3-0.7c-1-0.4-1.5-1-1.5-1.9V9.8c0-1.6,0.1-3,0.2-4.2
			c0.2-1.2,0.2-2.3,0.2-3.2c0-0.4-0.1-0.7-0.2-0.9c-0.2-0.2-0.5-0.3-1-0.3c-0.4,0-1.1,0.1-2.1,0.4c-1,0.3-2.1,0.5-3.3,0.6
			c-1,0.1-2.1,0.2-3.4,0.3c-1.2,0.1-2.2,0.1-2.9,0.1c0,0,0,0,0,0c-0.1,0.4-0.2,0.8-0.2,1.1c0,0.6,0.4,1,1,1.1
			c1.9,0.2,3.1,0.6,3.8,1.2c0.7,0.6,1,1.8,1,3.5v43.1c0,0.9-0.5,1.5-1.5,1.9c-1,0.4-2.1,0.7-3.3,0.9c-0.5,0.1-0.7,0.4-0.7,1
			c0,0.2,0,0.5,0.1,0.8h17.6c0-0.3,0.1-0.6,0.1-0.8C115.4,56,115.2,55.7,114.8,55.6z"/>
		<path d="M124,5.9c-0.8-0.9-1.9-1.4-3.2-1.4c-1.3,0-2.4,0.5-3.3,1.4c-0.9,0.9-1.3,2-1.3,3.3c0,1.4,0.4,2.5,1.3,3.4
			c0.9,0.9,2,1.3,3.3,1.3c1.3,0,2.4-0.4,3.2-1.3c0.9-0.9,1.3-2,1.3-3.4C125.3,7.9,124.9,6.8,124,5.9z M128.9,55.6
			c-0.4-0.1-0.8-0.2-1.2-0.2c-0.9-0.2-1.7-0.5-2.3-0.7c-0.8-0.4-1.2-1-1.2-1.8V30.6c0-1.7,0.1-3.1,0.2-4.1c0.2-1,0.2-1.9,0.2-2.7
			c0-0.8-0.4-1.2-1.1-1.2c-0.4,0-1.1,0.1-2.1,0.4c-1,0.2-2.1,0.5-3.3,0.7c-0.8,0.1-1.8,0.2-3.1,0.3c-1.2,0.1-2.2,0.1-2.9,0.1l0,0
			c-0.1,0.4-0.2,0.8-0.2,1c0,0.6,0.3,1,1,1.1c1.9,0.2,3.1,0.6,3.6,1.3c0.6,0.7,0.8,1.8,0.8,3.5v21.8c0,0.9-0.4,1.5-1.3,1.8
			c-0.6,0.3-1.4,0.5-2.4,0.8c-0.3,0.1-0.6,0.1-1,0.2c-0.5,0.1-0.7,0.4-0.7,1c0,0.2,0,0.4,0.1,0.7c0,0,0,0,0,0.1h17.3c0,0,0,0,0-0.1
			c0-0.3,0-0.6,0-0.7C129.6,56,129.3,55.7,128.9,55.6z"/>
		<path d="M187.4,55.6c-0.2,0-0.3-0.1-0.5-0.1c-1-0.2-1.9-0.5-2.7-0.8c-1-0.4-1.5-1-1.5-1.8V33.3c0-3.4-0.7-6-2-7.9
			c-1.3-1.9-3.6-2.8-6.8-2.8c-1.8,0-3.5,0.4-5.1,1.2c-1.6,0.8-3,1.7-4.2,2.6c-1.2,1-2.2,1.9-2.9,2.7c-0.7,0.8-1.2,1.3-1.4,1.5
			c0,0,0,0,0,0c-0.3-2.6-1.1-4.5-2.4-6c-1.4-1.4-3.4-2.1-6.2-2.1c-1.9,0-3.6,0.4-5.1,1.2c-1.5,0.8-2.9,1.6-4.1,2.6
			c-1.2,1-2.2,1.9-2.9,2.7c-0.7,0.8-1.2,1.3-1.3,1.5c0,0,0,0,0,0c0-1.7,0.1-3.1,0.2-4.1c0.2-1,0.2-1.9,0.2-2.7
			c0-0.8-0.4-1.2-1.1-1.2c-0.4,0-1.1,0.1-2.1,0.4c-1,0.2-2.1,0.5-3.3,0.7c-0.8,0.1-1.8,0.2-3.1,0.3c-1.3,0.1-2.2,0.1-2.9,0.1l0,0
			c-0.1,0.4-0.1,0.8-0.1,1c0,0.6,0.3,1,1,1.1c1.9,0.2,3.1,0.6,3.7,1.3c0.6,0.7,0.8,1.8,0.8,3.5v21.8c0,0.9-0.5,1.5-1.4,1.9
			c-0.7,0.3-1.4,0.5-2.1,0.7c-0.4,0.1-0.7,0.2-1.1,0.2c-0.5,0.1-0.7,0.4-0.7,1c0,0.2,0,0.5,0.1,0.8h17.1c0-0.3,0.1-0.6,0.1-0.8
			c0-0.5-0.2-0.8-0.7-1c-1.1-0.2-2.1-0.5-3-0.9c-0.9-0.4-1.4-1-1.4-1.8V38.2c0-1.7,0.3-3.1,0.9-4.4c0.6-1.3,1.4-2.4,2.4-3.2
			c1-0.9,2.1-1.5,3.3-2c1.2-0.5,2.6-0.7,4-0.7c1.8,0,3.1,0.6,3.9,1.7c0.8,1.1,1.2,3.4,1.2,6.7v16.5c0,0.9-0.5,1.5-1.5,1.9
			c-1,0.4-2,0.7-2.9,0.8c-0.5,0.1-0.7,0.4-0.7,1c0,0.2,0,0.5,0.1,0.8h16.9c0-0.3,0.1-0.6,0.1-0.8c0-0.5-0.2-0.8-0.7-1
			c-1.1-0.2-2.1-0.5-3-0.9c-0.9-0.4-1.4-1-1.4-1.8V38.2c0-1.7,0.3-3.1,0.9-4.4c0.6-1.3,1.4-2.4,2.3-3.2c1-0.9,2.1-1.5,3.3-2
			c1.3-0.5,2.6-0.7,4-0.7c1.8,0,3.1,0.6,3.9,1.7c0.8,1.1,1.2,3.4,1.2,6.7v16.5c0,0.4-0.2,0.8-0.4,1.1c-0.3,0.3-0.7,0.5-1.1,0.8
			c-0.4,0.2-0.9,0.4-1.4,0.6c-0.5,0.2-1,0.3-1.5,0.3c-0.5,0.1-0.7,0.4-0.7,1c0,0.2,0,0.5,0.1,0.8H188c0-0.3,0.1-0.6,0.1-0.8v0
			C188.1,56,187.9,55.7,187.4,55.6z"/>
		<path d="M218.3,54.7c-0.3,0-0.5,0-0.8,0.2c-0.2,0.1-0.7,0.2-1.2,0.2c-0.5,0-0.9-0.1-1.4-0.4c-0.5-0.2-0.9-0.7-1.2-1.5
			c-0.3-0.5-0.5-1.1-0.6-2c-0.1-0.8-0.2-2.2-0.2-4.1V33.4c0-2.3-0.3-4.2-0.9-5.6c-0.6-1.4-1.4-2.6-2.5-3.4c-1.1-0.9-2.4-1.5-3.9-1.8
			c-1.5-0.3-3.2-0.5-5.1-0.5c-1.5,0-3.1,0.3-4.7,0.8c-1.7,0.6-3.2,1.3-4.6,2.2c-1.4,0.9-2.6,2-3.5,3.1c-0.9,1.2-1.4,2.4-1.4,3.5
			c0,1.1,0.3,1.7,0.8,1.7c0.3,0,0.7,0,1.2-0.2c0.5-0.1,0.9-0.2,1.2-0.3c1.3-0.4,2.3-0.7,2.8-1c0.6-0.3,0.9-0.7,1.1-1.3
			c0.3-1,0.6-1.9,1-2.6c0.3-0.8,0.7-1.4,1.1-1.8c0.4-0.5,1-0.8,1.6-1c0.6-0.2,1.4-0.3,2.3-0.3c2.5,0,4.2,0.8,5.1,2.4
			c1,1.6,1.5,3.7,1.5,6.2c0,1.1-0.1,1.8-0.3,2.2c-0.2,0.4-0.7,0.7-1.4,0.9c-0.6,0.2-1.3,0.4-2,0.6c-0.8,0.2-1.6,0.4-2.5,0.5
			c-1.6,0.4-3.3,0.8-5,1.4c-1.7,0.5-3.3,1.2-4.8,2.1c-1.5,0.9-2.7,2-3.6,3.4c-0.9,1.4-1.4,3-1.4,5c0,1.8,0.3,3.2,1,4.2
			c0.2,0.4,0.5,0.7,0.8,1c0.4,0.4,0.8,0.8,1.2,1.1v0c0.2,0.1,0.4,0.3,0.6,0.4c0.2,0.1,0.5,0.3,0.8,0.4c0.8,0.4,1.7,0.6,2.7,0.8
			c1.2,0.2,2.3,0.3,3.4,0.3c1.4,0,2.6-0.1,3.8-0.4c0.9-0.2,1.8-0.5,2.6-0.9c1.8-0.9,3.4-2.5,4.8-4.9c0,0,0,0,0,0
			c0.1,0.8,0.3,1.6,0.7,2.3c0.3,0.8,0.8,1.4,1.4,2c0.6,0.6,1.3,1.1,2.2,1.4c0.9,0.3,1.9,0.5,3.1,0.5c2.1,0,3.9-0.5,5.3-1.4
			c0,0,0,0,0,0C219.2,55.3,218.9,54.7,218.3,54.7z M206.1,45.3c0,1.3-0.2,2.6-0.7,3.7c-0.5,1.1-1,2.1-1.8,2.9
			c-0.7,0.8-1.6,1.5-2.6,1.9c-1,0.5-2,0.7-3,0.7c-1.6,0-2.9-0.5-3.9-1.6c-1-1.1-1.6-2.6-1.6-4.6c0-1.5,0.3-2.8,0.9-3.8
			c0.6-1,1.4-1.9,2.5-2.5c1-0.7,2.2-1.2,3.5-1.6c1.3-0.4,2.7-0.7,4.1-1l2.6-0.4l0,0V45.3z"/>
	</g>
	<path d="M48.2,31.1h-16c-0.8,0-1.2-0.5-1.4-0.9S30.5,29,31,28.5l7.2-7.2c0.9-0.9,0.9-2.3,0-3.2c-0.9-0.9-2.3-0.9-3.2,0l-7.2,7.2
		c-0.5,0.5-1.2,0.5-1.7,0.3c-0.5-0.2-0.9-0.7-0.9-1.4V8.3c0-1.3-1-2.3-2.3-2.3c-1.3,0-2.3,1-2.3,2.3v15.9c0,0.8-0.5,1.2-0.9,1.4
		c-0.5,0.2-1.1,0.2-1.7-0.3l-7.2-7.2c-0.9-0.9-2.3-0.9-3.2,0c-0.4,0.4-0.7,1-0.7,1.6s0.2,1.2,0.7,1.6l7.2,7.2
		c0.5,0.5,0.5,1.2,0.3,1.7s-0.7,0.9-1.4,0.9H8.9c-1.3,0-2.3,1-2.3,2.3c0,1.3,1,2.3,2.3,2.3h4.8c0.8,0,1.2,0.5,1.4,0.9
		s0.2,1.1-0.3,1.7L3.6,49.5c-0.4,0.4-0.7,1-0.7,1.6c0,0.6,0.2,1.2,0.7,1.6c0.9,0.9,2.4,0.9,3.2,0l11.3-11.3c0.5-0.5,1.2-0.5,1.7-0.3
		c0.5,0.2,0.9,0.7,0.9,1.4v8.5c0,1.3,1,2.3,2.3,2.3c1.3,0,2.3-1,2.3-2.3v-8.5c0-0.8,0.5-1.2,0.9-1.4c0.5-0.2,1.1-0.2,1.7,0.3
		l11.4,11.4c0.4,0.4,1,0.7,1.6,0.7c0.6,0,1.2-0.2,1.6-0.7c0.4-0.4,0.7-1,0.7-1.6s-0.2-1.2-0.7-1.6L31,38.3c-0.5-0.5-0.5-1.2-0.3-1.7
		s0.7-0.9,1.4-0.9h16c1.3,0,2.3-1,2.3-2.3C50.4,32.1,49.4,31.1,48.2,31.1z"/>
</g>
</svg>
