<?xml version="1.0" encoding="utf-8"?>
<!-- Generator: Adobe Illustrator 29.3.1, SVG Export Plug-In . SVG Version: 9.03 Build 55982)  -->
<svg version="1.1" id="Layer_1" xmlns="http://www.w3.org/2000/svg" xmlns:xlink="http://www.w3.org/1999/xlink" x="0px" y="0px"
	 viewBox="0 0 648.2 148" style="enable-background:new 0 0 648.2 148;" xml:space="preserve">
<style type="text/css">
	.Drop_x0020_Shadow{fill:none;}
	.Outer_x0020_Glow_x0020_5_x0020_pt{fill:none;}
	.Blue_x0020_Neon{fill:none;stroke:#8AACDA;stroke-width:7;stroke-linecap:round;stroke-linejoin:round;}
	.Chrome_x0020_Highlight{fill:url(#SVGID_1_);stroke:#FFFFFF;stroke-width:0.3629;stroke-miterlimit:1;}
	.Jive_GS{fill:#FFDD00;}
	.Alyssa_GS{fill:#A6D0E4;}
	.st0{fill:#363636;}
	.st1{fill:#FFFFFF;}
</style>
<linearGradient id="SVGID_1_" gradientUnits="userSpaceOnUse" x1="-585.6431" y1="-36.8904" x2="-585.6431" y2="-37.8904">
	<stop  offset="0" style="stop-color:#656565"/>
	<stop  offset="0.618" style="stop-color:#1B1B1B"/>
	<stop  offset="0.6292" style="stop-color:#545454"/>
	<stop  offset="0.9831" style="stop-color:#3E3E3E"/>
</linearGradient>
<g>
	<g>
		<g>
			<path class="st1" d="M217.5,84.5c-5.5-5.6-14-10.7-25.6-15.3c-9.3-3.8-16.3-7.4-21.1-11.1c-4.8-3.6-7.1-8.3-7.1-14
				c0-2.6,0.6-5.1,1.7-7.2c1.2-2.2,2.7-4,4.6-5.5c1.9-1.5,4.2-2.6,6.8-3.4c2.6-0.8,5.4-1.2,8.2-1.2c7.5,0,13.4,1.6,17.8,4.7
				c4.3,3.1,8.1,8.2,11.2,15.1c0.4,0.7,0.9,1.4,1.6,2c0.7,0.6,1.9,0.9,3.5,0.9c0.6,0,1.5-0.1,2.7-0.4l0,0c-0.7-3.6-1.3-7.5-1.7-11.7
				c-0.4-4.2-0.8-8.1-1-11.7l0,0c-6.5-2.5-12.4-4.3-17.6-5.4c-5.2-1.1-10.6-1.6-16.3-1.6c-5.4,0-10.3,0.8-14.7,2.5
				c-4.3,1.7-8,4-11.1,6.9c-3.1,2.9-5.4,6.3-7.1,10.2c-1.6,3.9-2.4,8.1-2.4,12.6c0,5.1,0.8,9.4,2.4,13.1c1.6,3.7,4,6.9,7,9.7
				c3,2.8,6.6,5.2,10.9,7.3c4.2,2.1,8.9,4.2,14.1,6.1c8,2.9,14.1,6.2,18.4,9.8c4.3,3.6,6.4,8.6,6.4,14.9c0,2.8-0.5,5.4-1.5,7.8
				c-1,2.4-2.4,4.6-4.3,6.5c-1.9,1.9-4.4,3.4-7.3,4.5c-2.9,1.1-6.3,1.6-10.1,1.6c-8.6,0-15.3-2.1-20-6.2c-2.4-2.1-4.6-4.7-6.5-7.9
				c-1.9-3.2-3.7-7-5.2-11.3c-0.6-1.4-1.3-2.5-2.1-3.2c-0.8-0.7-1.9-1-3.3-1c-1.2,0-2.2,0.2-3.1,0.5c0,0,0,0,0,0
				c1,4.7,1.8,9.4,2.5,14.1c0.7,4.7,1.3,9.6,1.6,14.7c0,0,0,0,0,0c4.2,2.5,9.4,4.6,15.5,6.1c6.1,1.6,12.9,2.4,20.4,2.4
				c7.1,0,13.2-0.9,18.3-2.7c5.1-1.8,9.2-4.3,12.4-7.5c3.2-3.2,5.6-7,7.1-11.3c1.5-4.3,2.3-8.9,2.3-13.9
				C225.8,97,223,90.1,217.5,84.5z"/>
			<path class="st1" d="M262.9,134.2c-0.8-0.1-1.6-0.3-2.3-0.5c-1.9-0.4-3.6-0.9-5.2-1.6c-2.2-0.9-3.3-2.3-3.3-4.3v-97
				c0-3.6,0.2-6.8,0.5-9.5c0.4-2.7,0.5-5.1,0.5-7.2c0-0.8-0.2-1.5-0.5-2c-0.4-0.5-1.1-0.7-2.2-0.7c-1,0-2.6,0.3-4.8,0.9
				c-2.2,0.6-4.7,1.1-7.5,1.4c-2.3,0.2-4.8,0.5-7.6,0.6c-2.8,0.2-4.9,0.3-6.5,0.3c0,0,0,0,0,0c-0.2,1-0.4,1.8-0.4,2.5
				c0,1.4,0.8,2.3,2.4,2.5c4.2,0.4,7.1,1.2,8.6,2.6c1.5,1.4,2.3,4,2.3,7.9v97.5c0,1.9-1.2,3.4-3.4,4.3c-2.3,0.9-4.8,1.6-7.4,2.1
				c-1.1,0.2-1.6,1-1.6,2.2c0,0.5,0,1.1,0.2,1.8h39.7c0.1-0.7,0.2-1.3,0.2-1.8C264.4,135.2,263.9,134.5,262.9,134.2z"/>
			<path class="st1" d="M283.8,21.9c-1.9-2.1-4.3-3.2-7.3-3.2c-3,0-5.5,1.1-7.5,3.2c-2,2.1-3,4.6-3,7.5c0,3.1,1,5.7,3,7.6
				c2,1.9,4.5,2.9,7.5,2.9c2.9,0,5.3-1,7.3-2.9c1.9-1.9,2.9-4.5,2.9-7.6C286.7,26.6,285.7,24.1,283.8,21.9z M294.8,134.2
				c-0.9-0.2-1.8-0.3-2.6-0.5c-2.1-0.5-3.9-1-5.2-1.6c-1.9-0.9-2.8-2.2-2.8-4.2v-50c0-3.9,0.2-7,0.5-9.3c0.4-2.4,0.5-4.4,0.5-6.1
				c0-1.8-0.9-2.7-2.6-2.7c-1,0-2.6,0.3-4.8,0.8c-2.2,0.5-4.7,1.1-7.5,1.5c-1.8,0.2-4.2,0.5-7,0.6c-2.8,0.2-5,0.3-6.6,0.3l0,0
				c-0.2,1-0.4,1.7-0.4,2.4c0,1.4,0.8,2.3,2.4,2.5c4.2,0.4,7,1.3,8.2,2.9c1.3,1.6,1.9,4.2,1.9,7.8v49.3c0,1.9-1,3.3-2.9,4.2
				c-1.4,0.6-3.2,1.2-5.4,1.7c-0.7,0.2-1.4,0.3-2.2,0.5c-1.1,0.2-1.6,1-1.6,2.2c0,0.4,0.1,0.9,0.2,1.6c0,0,0,0.1,0,0.1h39.2
				c0,0,0-0.1,0-0.1c0-0.7,0.1-1.3,0.1-1.6C296.3,135.2,295.8,134.5,294.8,134.2z"/>
			<path class="st1" d="M426.9,134.2c-0.4-0.1-0.8-0.1-1.1-0.2c-2.2-0.5-4.2-1.1-6.1-1.9c-2.2-0.9-3.3-2.3-3.3-4.1V84
				c0-7.6-1.5-13.6-4.5-17.9c-3-4.3-8.2-6.4-15.5-6.4c-4.1,0-8,0.9-11.5,2.7c-3.6,1.8-6.7,3.8-9.5,6c-2.7,2.2-4.9,4.2-6.6,6.2
				c-1.7,1.9-2.8,3-3.3,3.4c0,0,0,0,0,0c-0.6-5.8-2.4-10.3-5.5-13.4c-3.1-3.2-7.7-4.8-14-4.8c-4.2,0-8.1,0.9-11.6,2.6
				c-3.5,1.8-6.6,3.7-9.3,5.9c-2.7,2.2-4.9,4.2-6.6,6.2c-1.6,1.9-2.6,3-3,3.4c0,0,0,0,0,0c0-3.8,0.2-6.9,0.5-9.3
				c0.4-2.4,0.5-4.4,0.5-6.1c0-1.8-0.9-2.7-2.6-2.7c-1,0-2.6,0.3-4.8,0.8c-2.2,0.5-4.7,1.1-7.5,1.5c-1.8,0.2-4.2,0.5-7,0.6
				c-2.8,0.2-5,0.3-6.6,0.3l0,0c-0.2,1-0.3,1.7-0.3,2.4c0,1.4,0.8,2.3,2.4,2.5c4.2,0.4,7,1.3,8.2,2.9c1.3,1.6,1.9,4.2,1.9,7.8v49.3
				c0,1.9-1.1,3.4-3.3,4.3c-1.5,0.6-3.1,1.2-4.8,1.6c-0.8,0.2-1.6,0.4-2.4,0.5c-1.1,0.2-1.6,1-1.6,2.2c0,0.5,0,1.1,0.2,1.8h38.6
				c0.1-0.7,0.2-1.3,0.2-1.8c0-1.2-0.5-1.9-1.6-2.2c-2.4-0.5-4.7-1.2-6.8-2.1c-2.1-0.9-3.2-2.3-3.2-4.1v-33c0-3.8,0.7-7.1,2-10
				c1.3-2.9,3.1-5.4,5.3-7.3c2.2-2,4.7-3.5,7.6-4.5c2.8-1,5.8-1.5,8.9-1.5c4.1,0,7,1.3,8.7,3.9c1.7,2.6,2.6,7.6,2.6,15.1V128
				c0,1.9-1.1,3.4-3.3,4.3c-2.2,0.9-4.5,1.5-6.6,1.9c-1.1,0.2-1.6,1-1.6,2.2c0,0.5,0,1.1,0.2,1.8h38.1c0.1-0.7,0.2-1.3,0.2-1.8
				c0-1.2-0.5-1.9-1.6-2.2c-2.5-0.5-4.8-1.2-6.9-2.1c-2.1-0.9-3.1-2.3-3.1-4.1v-33c0-3.8,0.7-7.1,2-10c1.3-2.9,3.1-5.4,5.3-7.3
				c2.2-2,4.7-3.5,7.5-4.5c2.8-1,5.8-1.5,9-1.5c4.1,0,7.1,1.3,8.9,3.9c1.8,2.6,2.7,7.6,2.7,15.1V128c0,1-0.3,1.8-1,2.5
				c-0.7,0.7-1.5,1.2-2.5,1.7c-0.9,0.5-2,0.9-3.2,1.3c-1.2,0.4-2.3,0.6-3.3,0.7c-1.1,0.2-1.6,1-1.6,2.2c0,0.5,0.1,1.1,0.2,1.8h38.7
				c0.1-0.7,0.2-1.3,0.2-1.7v0C428.6,135.2,428,134.5,426.9,134.2z"/>
			<path class="st1" d="M496.9,132.3c-0.6,0-1.2,0.1-1.7,0.4c-0.5,0.2-1.5,0.4-2.8,0.4c-1.1,0-2.1-0.3-3.2-0.8c-1-0.5-2-1.7-2.8-3.3
				c-0.6-1.1-1.1-2.6-1.4-4.5c-0.3-1.9-0.5-4.9-0.5-9.2V84.1c0-5.2-0.6-9.4-1.9-12.7c-1.3-3.3-3.1-5.9-5.6-7.8
				c-2.5-1.9-5.4-3.3-8.8-4c-3.4-0.7-7.2-1.1-11.4-1.1c-3.4,0-7,0.6-10.7,1.9c-3.7,1.3-7.2,2.9-10.4,5c-3.2,2.1-5.8,4.4-7.9,7.1
				c-2,2.6-3.1,5.3-3.1,8c0,2.6,0.6,3.8,1.8,3.8c0.7,0,1.6-0.1,2.7-0.4c1.1-0.2,2-0.5,2.7-0.7c3-0.9,5.2-1.6,6.4-2.2
				c1.3-0.6,2.1-1.6,2.4-2.9c0.7-2.3,1.4-4.3,2.2-6c0.7-1.7,1.6-3.1,2.5-4.1c1-1,2.2-1.8,3.6-2.3c1.4-0.5,3.2-0.7,5.2-0.7
				c5.6,0,9.4,1.8,11.6,5.5c2.2,3.7,3.3,8.4,3.3,14.1c0,2.4-0.2,4-0.6,4.9c-0.4,0.9-1.5,1.5-3.2,2c-1.3,0.5-2.9,0.9-4.6,1.4
				c-1.8,0.4-3.7,0.8-5.7,1.2c-3.6,0.8-7.4,1.9-11.3,3.1c-3.9,1.2-7.5,2.8-10.9,4.8c-3.3,2-6,4.5-8.2,7.6c-2.1,3.1-3.2,6.8-3.2,11.3
				c0,4,0.8,7.2,2.4,9.6c0.5,0.8,1.1,1.6,1.8,2.3c0.9,0.9,1.8,1.7,2.8,2.4v0c0.5,0.3,0.9,0.6,1.4,0.9c0.6,0.3,1.1,0.6,1.7,0.9
				c1.9,0.9,3.9,1.4,6,1.8c2.7,0.4,5.3,0.6,7.7,0.6c3.1,0,5.9-0.3,8.6-1c2.1-0.5,4-1.2,5.8-2c4.2-2,7.7-5.7,10.8-11.1c0,0,0,0,0,0
				c0.2,1.8,0.7,3.5,1.5,5.2c0.7,1.7,1.8,3.2,3.1,4.5c1.4,1.3,3,2.4,4.9,3.2c2,0.8,4.3,1.2,7,1.2c4.8,0,8.8-1.1,12-3.3c0,0,0,0,0,0
				C499,133.5,498.2,132.3,496.9,132.3z M469.4,111.1c0,3-0.5,5.8-1.6,8.3c-1,2.5-2.4,4.7-4,6.6c-1.6,1.9-3.6,3.3-5.8,4.4
				c-2.3,1-4.5,1.5-6.8,1.5c-3.5,0-6.5-1.2-8.8-3.6c-2.4-2.4-3.5-5.9-3.5-10.5c0-3.4,0.7-6.2,2.1-8.5c1.4-2.3,3.3-4.2,5.6-5.7
				c2.3-1.5,4.9-2.7,7.9-3.5c3-0.8,6.1-1.6,9.2-2.2l5.8-0.9l0,0V111.1z"/>
		</g>
		<path class="st1" d="M112.4,79H76.1c-1.7,0-2.8-1.1-3.2-2.1c-0.4-1-0.5-2.6,0.7-3.8l16.3-16.3c2-2,2-5.3,0-7.3c-2-2-5.3-2-7.3,0
			L66.4,65.8c-1.2,1.2-2.7,1.2-3.8,0.7c-1-0.4-2.1-1.5-2.1-3.2V27.5c0-2.8-2.3-5.1-5.1-5.1c-2.8,0-5.1,2.3-5.1,5.1v35.9
			c0,1.7-1.1,2.8-2.1,3.2c-1,0.4-2.6,0.5-3.8-0.7L28.1,49.6c-2-2-5.3-2-7.3,0c-1,1-1.5,2.3-1.5,3.6s0.5,2.7,1.5,3.6l16.2,16.2
			c1.2,1.2,1.2,2.7,0.7,3.8c-0.4,1-1.5,2.1-3.2,2.1H23.7c-2.8,0-5.1,2.3-5.1,5.1c0,2.8,2.3,5.1,5.1,5.1h10.9c1.7,0,2.8,1.1,3.2,2.1
			c0.4,1,0.5,2.6-0.7,3.8l-25.4,25.4c-1,1-1.5,2.3-1.5,3.6c0,1.4,0.5,2.7,1.5,3.6c1.9,1.9,5.3,1.9,7.3,0l25.4-25.4
			c1.2-1.2,2.7-1.2,3.8-0.7c1,0.4,2.1,1.5,2.1,3.2v19.3c0,2.8,2.3,5.1,5.1,5.1c2.8,0,5.1-2.3,5.1-5.1v-19.3c0-1.7,1.1-2.8,2.1-3.2
			c1-0.4,2.6-0.5,3.8,0.7l25.8,25.8c1,1,2.3,1.5,3.6,1.5c1.4,0,2.7-0.5,3.6-1.5c1-1,1.5-2.3,1.5-3.6c0-1.4-0.5-2.7-1.5-3.6
			L73.7,95.1c-1.2-1.2-1.2-2.7-0.7-3.8c0.4-1,1.5-2.1,3.2-2.1h36.3c2.8,0,5.1-2.3,5.1-5.1C117.5,81.3,115.2,79,112.4,79z"/>
	</g>
	<g>
		<g>
			<path class="st1" d="M519.6,115.5V96h2v19.5H519.6z"/>
			<path class="st1" d="M531.4,115.9c-1.4,0-2.5-0.3-3.5-1c-1-0.7-1.7-1.6-2.2-2.8c-0.5-1.2-0.8-2.5-0.8-3.9c0-1.5,0.3-2.8,0.8-3.9
				c0.5-1.2,1.2-2.1,2.2-2.8c1-0.7,2.1-1,3.4-1c1.4,0,2.5,0.3,3.5,1c0.9,0.7,1.7,1.6,2.1,2.7s0.7,2.5,0.7,4c0,1.5-0.2,2.8-0.7,3.9
				c-0.5,1.2-1.2,2.1-2.1,2.8C533.8,115.6,532.7,115.9,531.4,115.9z M531.6,114.1c1,0,1.9-0.3,2.6-0.8c0.7-0.5,1.2-1.2,1.5-2.1
				c0.3-0.9,0.5-1.9,0.5-3c0-1.1-0.2-2.2-0.5-3c-0.3-0.9-0.8-1.6-1.5-2.1c-0.7-0.5-1.5-0.7-2.5-0.7c-1,0-1.9,0.3-2.6,0.8
				c-0.7,0.5-1.2,1.2-1.5,2.1c-0.3,0.9-0.5,1.9-0.5,3c0,1.1,0.2,2.1,0.5,3c0.3,0.9,0.8,1.6,1.5,2.1
				C529.7,113.8,530.5,114.1,531.6,114.1z M536.2,115.5v-11h-0.2V96h2v19.5H536.2z"/>
			<path class="st1" d="M547.9,115.9c-1.4,0-2.7-0.3-3.7-0.9s-1.9-1.5-2.4-2.7c-0.6-1.1-0.9-2.5-0.9-4c0-1.6,0.3-3,0.9-4.1
				c0.6-1.2,1.4-2.1,2.4-2.7c1-0.6,2.3-0.9,3.7-0.9c1.4,0,2.7,0.3,3.7,1c1,0.7,1.8,1.6,2.3,2.9c0.5,1.2,0.8,2.7,0.7,4.4h-2v-0.7
				c0-1.9-0.4-3.3-1.2-4.3c-0.8-1-1.9-1.5-3.4-1.5c-1.6,0-2.8,0.5-3.6,1.5s-1.3,2.5-1.3,4.4c0,1.8,0.4,3.3,1.3,4.3s2,1.5,3.6,1.5
				c1,0,2-0.2,2.7-0.7s1.4-1.2,1.9-2.1l1.9,0.7c-0.6,1.3-1.4,2.3-2.6,3C550.6,115.6,549.4,115.9,547.9,115.9z M542.3,108.8v-1.7
				h11.2v1.7H542.3z"/>
			<path class="st1" d="M561.8,115.9c-1.1,0-2-0.2-2.8-0.6c-0.7-0.4-1.3-0.9-1.7-1.6c-0.4-0.7-0.6-1.4-0.6-2.2c0-0.8,0.2-1.5,0.5-2
				c0.3-0.6,0.8-1,1.3-1.4c0.6-0.4,1.2-0.6,1.9-0.8c0.7-0.2,1.6-0.3,2.5-0.5c0.9-0.1,1.8-0.3,2.6-0.4s1.6-0.2,2.3-0.3l-0.7,0.4
				c0-1.4-0.3-2.5-0.8-3.2c-0.6-0.7-1.6-1-3.1-1c-1,0-1.9,0.2-2.5,0.7c-0.7,0.5-1.2,1.2-1.5,2.1l-1.9-0.6c0.3-1.3,1-2.3,2-3.1
				c1-0.7,2.3-1.1,3.9-1.1c1.3,0,2.5,0.3,3.4,0.8c0.9,0.5,1.6,1.2,2,2.2c0.2,0.4,0.3,0.9,0.4,1.4c0.1,0.5,0.1,1.1,0.1,1.6v9.1h-1.8
				v-3.7l0.5,0.2c-0.5,1.3-1.3,2.2-2.3,2.9C564.5,115.6,563.2,115.9,561.8,115.9z M562,114.2c0.9,0,1.7-0.2,2.4-0.5s1.3-0.8,1.7-1.4
				s0.7-1.2,0.8-2c0.1-0.5,0.2-1,0.2-1.6s0-1,0-1.3l0.8,0.4c-0.7,0.1-1.4,0.2-2.2,0.3s-1.6,0.2-2.3,0.3c-0.8,0.1-1.5,0.3-2.1,0.4
				c-0.4,0.1-0.8,0.3-1.2,0.5s-0.7,0.5-1,0.8c-0.2,0.4-0.4,0.8-0.4,1.3c0,0.4,0.1,0.8,0.3,1.2c0.2,0.4,0.6,0.7,1,1
				S561.2,114.2,562,114.2z"/>
			<path class="st1" d="M578.1,115.9c-1.7,0-3.1-0.4-4.2-1.1c-1.1-0.7-1.8-1.8-2-3.1l2-0.3c0.2,0.8,0.7,1.5,1.5,2
				c0.8,0.5,1.7,0.7,2.9,0.7c1.1,0,2-0.2,2.6-0.7c0.6-0.5,1-1.1,1-1.9c0-0.5-0.1-0.8-0.3-1.1s-0.6-0.5-1.2-0.8
				c-0.6-0.2-1.6-0.5-2.8-0.9c-1.3-0.4-2.4-0.7-3.1-1.1c-0.8-0.4-1.3-0.8-1.6-1.3s-0.5-1.1-0.5-1.7c0-0.8,0.2-1.6,0.7-2.2
				s1.1-1.1,2-1.5c0.8-0.3,1.8-0.5,2.9-0.5s2.1,0.2,3,0.5c0.9,0.4,1.6,0.9,2.1,1.5c0.5,0.6,0.8,1.4,0.9,2.2l-2,0.4
				c-0.1-0.9-0.6-1.5-1.3-2c-0.7-0.5-1.6-0.8-2.7-0.8c-1,0-1.9,0.2-2.5,0.6c-0.7,0.4-1,1-1,1.7c0,0.4,0.1,0.7,0.4,1s0.7,0.5,1.3,0.8
				c0.6,0.2,1.5,0.5,2.7,0.8c1.3,0.3,2.4,0.7,3.2,1.1c0.8,0.4,1.3,0.8,1.6,1.3s0.5,1.2,0.5,1.9c0,1.4-0.5,2.5-1.5,3.3
				C581.3,115.5,579.9,115.9,578.1,115.9z"/>
			<path class="st1" d="M519.6,120.7v-2.2h2v2.2H519.6z M519.6,138.1v-14.6h2v14.6H519.6z"/>
			<path class="st1" d="M525.7,138.1v-14.6h1.8v3.6h0.2v11H525.7z M536.3,138.1v-7.5c0-0.8-0.1-1.6-0.2-2.2
				c-0.2-0.7-0.4-1.3-0.7-1.8s-0.8-0.9-1.3-1.2s-1.2-0.4-2-0.4c-0.7,0-1.3,0.1-1.9,0.4c-0.5,0.2-1,0.6-1.4,1.1s-0.6,1-0.8,1.7
				c-0.2,0.7-0.3,1.4-0.3,2.2l-1.4-0.3c0-1.5,0.3-2.8,0.8-3.8c0.5-1,1.2-1.8,2.2-2.3c0.9-0.5,2-0.8,3.2-0.8c0.9,0,1.6,0.1,2.3,0.4
				c0.7,0.3,1.2,0.6,1.7,1.1c0.5,0.5,0.8,1,1.1,1.6c0.3,0.6,0.5,1.2,0.6,1.9c0.1,0.7,0.2,1.3,0.2,2v8.1H536.3z"/>
			<path class="st1" d="M547.2,138.1v-14.6h1.8v3.6h0.2v11H547.2z M556,138.1l0-9.5c0-1.2-0.3-2.1-0.9-2.8s-1.4-1-2.4-1
				c-1,0-1.8,0.3-2.5,1c-0.6,0.7-0.9,1.6-0.9,2.8L548,128c0-0.9,0.2-1.8,0.7-2.5c0.4-0.7,1-1.3,1.8-1.8c0.8-0.4,1.6-0.6,2.6-0.6
				c0.9,0,1.8,0.2,2.5,0.6c0.7,0.4,1.3,1,1.7,1.7c0.4,0.8,0.6,1.7,0.6,2.8l0,9.9H556z M564.7,138.1l0-9.6c0-1.1-0.3-2-0.9-2.7
				c-0.6-0.6-1.4-1-2.4-1c-0.6,0-1.1,0.1-1.6,0.4c-0.5,0.3-1,0.7-1.3,1.2s-0.5,1.3-0.5,2.2l-1.2-0.3c0-1,0.2-2,0.6-2.8
				s1-1.4,1.8-1.8c0.8-0.4,1.6-0.7,2.6-0.7c1.5,0,2.7,0.5,3.5,1.4c0.9,0.9,1.3,2.1,1.3,3.7l0,10H564.7z"/>
			<path class="st1" d="M576.3,138.5c-1.5,0-2.7-0.3-3.7-1c-1-0.7-1.8-1.6-2.4-2.7c-0.6-1.2-0.8-2.5-0.8-4c0-1.5,0.3-2.9,0.8-4
				c0.6-1.2,1.4-2.1,2.4-2.7c1-0.6,2.3-1,3.7-1c1.5,0,2.7,0.3,3.8,1c1,0.7,1.8,1.6,2.4,2.7c0.5,1.2,0.8,2.5,0.8,4
				c0,1.5-0.3,2.9-0.8,4c-0.6,1.2-1.3,2.1-2.4,2.7C579,138.2,577.8,138.5,576.3,138.5z M576.3,136.6c1.6,0,2.8-0.5,3.6-1.6
				c0.8-1.1,1.2-2.5,1.2-4.2c0-1.8-0.4-3.2-1.2-4.2c-0.8-1-2-1.6-3.6-1.6c-1.1,0-2,0.2-2.7,0.7s-1.2,1.2-1.6,2
				c-0.3,0.9-0.5,1.9-0.5,3c0,1.8,0.4,3.2,1.2,4.2C573.5,136.1,574.7,136.6,576.3,136.6z"/>
			<path class="st1" d="M584.6,125.2v-1.7h9.6v1.7H584.6z M594.2,138.1c-0.8,0.2-1.6,0.2-2.4,0.2c-0.8,0-1.5-0.2-2.1-0.5
				c-0.6-0.3-1.1-0.8-1.4-1.4c-0.3-0.5-0.4-1.1-0.4-1.6c0-0.6,0-1.2,0-1.9v-13.4h2v13.3c0,0.6,0,1.1,0,1.5c0,0.4,0.1,0.8,0.3,1.1
				c0.3,0.6,0.8,1,1.6,1.1c0.7,0.1,1.6,0.1,2.6-0.1V138.1z"/>
			<path class="st1" d="M597.4,120.7v-2.2h2v2.2H597.4z M597.4,138.1v-14.6h2v14.6H597.4z"/>
			<path class="st1" d="M609.6,138.5c-1.5,0-2.7-0.3-3.7-1c-1-0.7-1.8-1.6-2.4-2.7c-0.6-1.2-0.8-2.5-0.8-4c0-1.5,0.3-2.9,0.8-4
				c0.6-1.2,1.4-2.1,2.4-2.7c1-0.6,2.3-1,3.7-1c1.5,0,2.7,0.3,3.8,1c1,0.7,1.8,1.6,2.4,2.7c0.5,1.2,0.8,2.5,0.8,4
				c0,1.5-0.3,2.9-0.8,4c-0.6,1.2-1.3,2.1-2.4,2.7C612.2,138.2,611,138.5,609.6,138.5z M609.6,136.6c1.6,0,2.8-0.5,3.6-1.6
				c0.8-1.1,1.2-2.5,1.2-4.2c0-1.8-0.4-3.2-1.2-4.2c-0.8-1-2-1.6-3.6-1.6c-1.1,0-2,0.2-2.7,0.7s-1.2,1.2-1.6,2
				c-0.3,0.9-0.5,1.9-0.5,3c0,1.8,0.4,3.2,1.2,4.2C606.8,136.1,608,136.6,609.6,136.6z"/>
			<path class="st1" d="M619.5,138.1v-14.6h1.8v3.6h0.2v11H619.5z M630.1,138.1v-7.5c0-0.8-0.1-1.6-0.2-2.2
				c-0.2-0.7-0.4-1.3-0.7-1.8s-0.8-0.9-1.3-1.2s-1.2-0.4-2-0.4c-0.7,0-1.3,0.1-1.9,0.4c-0.5,0.2-1,0.6-1.4,1.1s-0.6,1-0.8,1.7
				c-0.2,0.7-0.3,1.4-0.3,2.2l-1.4-0.3c0-1.5,0.3-2.8,0.8-3.8c0.5-1,1.2-1.8,2.2-2.3c0.9-0.5,2-0.8,3.2-0.8c0.9,0,1.6,0.1,2.3,0.4
				c0.7,0.3,1.2,0.6,1.7,1.1c0.5,0.5,0.8,1,1.1,1.6c0.3,0.6,0.5,1.2,0.6,1.9c0.1,0.7,0.2,1.3,0.2,2v8.1H630.1z"/>
		</g>
	</g>
</g>
</svg>
