<?xml version="1.0" encoding="utf-8"?>
<!-- Generator: Adobe Illustrator 29.3.1, SVG Export Plug-In . SVG Version: 9.03 Build 55982)  -->
<svg version="1.1" id="Layer_1" xmlns="http://www.w3.org/2000/svg" xmlns:xlink="http://www.w3.org/1999/xlink" x="0px" y="0px"
	 viewBox="0 0 53.4 50.6" style="enable-background:new 0 0 53.4 50.6;" xml:space="preserve">
<style type="text/css">
	.Drop_x0020_Shadow{fill:none;}
	.Outer_x0020_Glow_x0020_5_x0020_pt{fill:none;}
	.Blue_x0020_Neon{fill:none;stroke:#8AACDA;stroke-width:7;stroke-linecap:round;stroke-linejoin:round;}
	.Chrome_x0020_Highlight{fill:url(#SVGID_1_);stroke:#FFFFFF;stroke-width:0.3629;stroke-miterlimit:1;}
	.Jive_GS{fill:#FFDD00;}
	.Alyssa_GS{fill:#A6D0E4;}
	.st0{fill:#363636;}
	.st1{fill:#FFFFFF;}
</style>
<linearGradient id="SVGID_1_" gradientUnits="userSpaceOnUse" x1="-1054.4645" y1="-53.4551" x2="-1054.4645" y2="-54.4551">
	<stop  offset="0" style="stop-color:#656565"/>
	<stop  offset="0.618" style="stop-color:#1B1B1B"/>
	<stop  offset="0.6292" style="stop-color:#545454"/>
	<stop  offset="0.9831" style="stop-color:#3E3E3E"/>
</linearGradient>
<path d="M48.2,26.6h-16c-0.8,0-1.2-0.5-1.4-0.9s-0.2-1.1,0.3-1.7l7.2-7.2c0.9-0.9,0.9-2.3,0-3.2c-0.9-0.9-2.3-0.9-3.2,0l-7.2,7.2
	c-0.5,0.5-1.2,0.5-1.7,0.3c-0.5-0.2-0.9-0.7-0.9-1.4V3.8c0-1.3-1-2.3-2.3-2.3c-1.3,0-2.3,1-2.3,2.3v15.9c0,0.8-0.5,1.2-0.9,1.4
	c-0.5,0.2-1.1,0.2-1.7-0.3l-7.2-7.2c-0.9-0.9-2.3-0.9-3.2,0C7.3,14,7,14.6,7,15.2s0.2,1.2,0.7,1.6l7.2,7.2c0.5,0.5,0.5,1.2,0.3,1.7
	s-0.7,0.9-1.4,0.9H9c-1.3,0-2.3,1-2.3,2.3c0,1.3,1,2.3,2.3,2.3h4.8c0.8,0,1.2,0.5,1.4,0.9s0.2,1.1-0.3,1.7L3.6,45
	C3.2,45.5,3,46,3,46.6c0,0.6,0.2,1.2,0.7,1.6c0.9,0.9,2.4,0.9,3.2,0L18.1,37c0.5-0.5,1.2-0.5,1.7-0.3c0.5,0.2,0.9,0.7,0.9,1.4v8.5
	c0,1.3,1,2.3,2.3,2.3c1.3,0,2.3-1,2.3-2.3v-8.5c0-0.8,0.5-1.2,0.9-1.4c0.5-0.2,1.1-0.2,1.7,0.3l11.4,11.4c0.4,0.4,1,0.7,1.6,0.7
	c0.6,0,1.2-0.2,1.6-0.7c0.4-0.4,0.7-1,0.7-1.6s-0.2-1.2-0.7-1.6L31.1,33.8c-0.5-0.5-0.5-1.2-0.3-1.7s0.7-0.9,1.4-0.9h16
	c1.3,0,2.3-1,2.3-2.3C50.5,27.6,49.4,26.6,48.2,26.6z"/>
</svg>
