<?xml version="1.0" encoding="utf-8"?>
<!-- Generator: Adobe Illustrator 29.3.1, SVG Export Plug-In . SVG Version: 9.03 Build 55982)  -->
<svg version="1.1" id="Layer_1" xmlns="http://www.w3.org/2000/svg" xmlns:xlink="http://www.w3.org/1999/xlink" x="0px" y="0px"
	 viewBox="0 0 611 432.6" style="enable-background:new 0 0 611 432.6;" xml:space="preserve">
<style type="text/css">
	.Drop_x0020_Shadow{fill:none;}
	.Outer_x0020_Glow_x0020_5_x0020_pt{fill:none;}
	.Blue_x0020_Neon{fill:none;stroke:#8AACDA;stroke-width:7;stroke-linecap:round;stroke-linejoin:round;}
	.Chrome_x0020_Highlight{fill:url(#SVGID_1_);stroke:#FFFFFF;stroke-width:0.3629;stroke-miterlimit:1;}
	.Jive_GS{fill:#FFDD00;}
	.Alyssa_GS{fill:#A6D0E4;}
	.st0{fill:#FFFFFF;}
</style>
<linearGradient id="SVGID_1_" gradientUnits="userSpaceOnUse" x1="501.9783" y1="105.4152" x2="501.9783" y2="104.4152">
	<stop  offset="0" style="stop-color:#656565"/>
	<stop  offset="0.618" style="stop-color:#1B1B1B"/>
	<stop  offset="0.6292" style="stop-color:#545454"/>
	<stop  offset="0.9831" style="stop-color:#3E3E3E"/>
</linearGradient>
<g>
	<g>
		<path class="st0" d="M131.3,332.4c-8.9-9.1-22.8-17.4-41.6-24.9c-15.1-6.1-26.5-12.1-34.3-17.9c-7.7-5.9-11.6-13.4-11.6-22.7
			c0-4.3,0.9-8.2,2.8-11.7c1.9-3.6,4.4-6.5,7.5-9c3.2-2.5,6.8-4.3,11-5.6c4.2-1.3,8.7-1.9,13.4-1.9c12.1,0,21.8,2.5,28.8,7.6
			c7,5.1,13.1,13.2,18.2,24.4c0.6,1.2,1.5,2.2,2.6,3.2c1.2,1,3,1.5,5.6,1.5c1,0,2.4-0.2,4.4-0.6l0,0c-1.2-5.9-2.1-12.2-2.8-18.9
			c-0.7-6.8-1.2-13.1-1.6-19l0,0c-10.6-4.1-20.1-7-28.5-8.8c-8.4-1.8-17.3-2.6-26.5-2.6c-8.8,0-16.8,1.4-23.9,4.1
			c-7,2.8-13.1,6.5-18.1,11.2c-5,4.7-8.8,10.2-11.5,16.6c-2.6,6.4-4,13.2-4,20.4c0,8.3,1.3,15.3,4,21.3c2.7,6,6.5,11.3,11.3,15.8
			c4.9,4.5,10.8,8.5,17.7,11.9c6.9,3.4,14.5,6.8,23,9.9c13,4.7,22.9,10,29.9,15.9c6.9,5.9,10.5,13.9,10.5,24.1
			c0,4.5-0.8,8.7-2.4,12.6c-1.6,3.9-3.9,7.5-7,10.6c-3.2,3.2-7.1,5.6-11.8,7.4c-4.7,1.8-10.2,2.6-16.5,2.6c-13.9,0-24.8-3.3-32.5-10
			c-3.9-3.3-7.4-7.6-10.6-12.8c-3.2-5.2-5.9-11.3-8.4-18.4c-1-2.3-2.1-4.1-3.4-5.1c-1.2-1.1-3.1-1.6-5.4-1.6c-1.9,0-3.6,0.3-5,0.8
			c0,0,0,0,0,0.1c1.6,7.6,2.9,15.3,4.1,22.9c1.2,7.7,2.1,15.6,2.6,23.8c0,0,0,0,0,0c6.9,4.1,15.2,7.4,25.1,10
			c9.9,2.6,20.9,3.9,33.1,3.9c11.6,0,21.5-1.5,29.7-4.4c8.3-2.9,15-7,20.1-12.2c5.2-5.2,9-11.3,11.5-18.3c2.5-6.9,3.7-14.5,3.7-22.5
			C144.7,352.8,140.3,341.5,131.3,332.4z"/>
		<path class="st0" d="M205,413.2c-1.3-0.2-2.5-0.5-3.7-0.8c-3-0.7-5.9-1.5-8.5-2.6c-3.6-1.5-5.4-3.8-5.4-6.9V245.5
			c0-5.9,0.3-11,0.9-15.4c0.6-4.4,0.9-8.3,0.9-11.6c0-1.4-0.3-2.5-0.9-3.2c-0.6-0.8-1.8-1.2-3.6-1.2c-1.6,0-4.1,0.5-7.7,1.5
			c-3.6,1-7.6,1.8-12.2,2.3c-3.7,0.4-7.9,0.7-12.4,1c-4.5,0.3-8,0.4-10.6,0.4c0,0,0,0,0,0c-0.4,1.6-0.6,2.9-0.6,4.1
			c0,2.3,1.3,3.7,3.8,4.1c6.9,0.6,11.5,2,14,4.3c2.5,2.3,3.7,6.5,3.7,12.8v158.3c0,3.2-1.9,5.5-5.6,6.9c-3.7,1.5-7.7,2.6-12.1,3.4
			c-1.8,0.4-2.6,1.6-2.6,3.5c0,0.8,0.1,1.7,0.3,2.9h64.5c0.2-1.1,0.3-2.1,0.3-2.9C207.4,414.8,206.6,413.6,205,413.2z"/>
		<path class="st0" d="M238.9,230.9c-3.1-3.4-7-5.1-11.8-5.1c-4.9,0-9,1.7-12.2,5.1c-3.3,3.4-4.9,7.5-4.9,12.2
			c0,5.1,1.6,9.2,4.9,12.4c3.2,3.1,7.3,4.7,12.2,4.7c4.7,0,8.7-1.6,11.8-4.7c3.2-3.2,4.7-7.3,4.7-12.4
			C243.6,238.4,242,234.4,238.9,230.9z M256.8,413.2c-1.5-0.3-3-0.6-4.3-0.8c-3.4-0.8-6.3-1.7-8.5-2.7c-3-1.4-4.6-3.6-4.6-6.8v-81.2
			c0-6.3,0.3-11.3,0.9-15.2c0.6-3.8,0.9-7.1,0.9-9.9c0-2.9-1.4-4.4-4.1-4.4c-1.6,0-4.2,0.4-7.7,1.3c-3.6,0.9-7.6,1.7-12.2,2.5
			c-3,0.4-6.8,0.7-11.4,1c-4.6,0.3-8.1,0.4-10.7,0.4l0,0c-0.4,1.6-0.6,2.8-0.6,3.8c0,2.3,1.3,3.7,3.9,4.1c6.9,0.6,11.3,2.2,13.4,4.7
			c2.1,2.6,3.1,6.8,3.1,12.7v80c0,3.2-1.6,5.4-4.7,6.8c-2.3,1-5.2,1.9-8.7,2.8c-1.1,0.3-2.3,0.5-3.6,0.8c-1.8,0.4-2.6,1.6-2.6,3.5
			c0,0.6,0.1,1.5,0.3,2.6c0,0.1,0,0.1,0,0.2H259c0-0.1,0-0.1,0-0.2c0.1-1.2,0.1-2.1,0.1-2.6C259.2,414.8,258.4,413.6,256.8,413.2z"
			/>
		<path class="st0" d="M471.4,413.2c-0.6-0.1-1.2-0.2-1.8-0.4c-3.6-0.7-6.9-1.8-9.9-3c-3.5-1.5-5.3-3.7-5.3-6.6v-71.5
			c0-12.4-2.5-22-7.4-29c-4.9-7-13.3-10.5-25.1-10.5c-6.7,0-13,1.5-18.8,4.4c-5.8,3-10.9,6.2-15.4,9.7c-4.4,3.5-8,6.9-10.8,10
			c-2.7,3-4.5,4.9-5.3,5.5c0,0,0,0,0,0c-1-9.4-4-16.7-9-21.8c-5-5.2-12.6-7.8-22.7-7.8c-6.8,0-13.1,1.4-18.8,4.3
			c-5.7,2.9-10.7,6.1-15.1,9.6c-4.4,3.5-8,6.9-10.7,10c-2.6,3-4.3,4.9-4.9,5.5c0,0,0,0,0,0c0-6.2,0.3-11.2,0.9-15
			c0.6-3.8,0.9-7.1,0.9-9.9c0-2.9-1.4-4.4-4.2-4.4c-1.6,0-4.1,0.4-7.7,1.3c-3.6,0.9-7.6,1.7-12.2,2.5c-3,0.4-6.8,0.7-11.4,1
			c-4.6,0.3-8.1,0.4-10.7,0.4l0,0c-0.4,1.6-0.6,2.8-0.6,3.8c0,2.3,1.2,3.7,3.8,4.1c6.9,0.6,11.3,2.2,13.4,4.7
			c2.1,2.6,3.1,6.8,3.1,12.7v80c0,3.2-1.8,5.5-5.3,6.9c-2.5,1-5.1,1.9-7.9,2.5c-1.3,0.3-2.6,0.6-3.9,0.8c-1.8,0.4-2.6,1.6-2.6,3.5
			c0,0.8,0.1,1.7,0.3,2.9H309c0.1-1.1,0.3-2.1,0.3-2.9c0-1.9-0.9-3.1-2.6-3.5c-3.9-0.8-7.6-1.9-11-3.4c-3.4-1.5-5.1-3.7-5.1-6.6
			v-53.5c0-6.1,1.1-11.5,3.2-16.2c2.2-4.7,5-8.7,8.7-11.9c3.6-3.2,7.7-5.7,12.3-7.4c4.6-1.7,9.4-2.5,14.5-2.5
			c6.6,0,11.4,2.1,14.2,6.3c2.8,4.2,4.2,12.4,4.2,24.6v60.6c0,3.2-1.8,5.5-5.4,6.9c-3.6,1.5-7.2,2.5-10.8,3.1
			c-1.8,0.4-2.6,1.6-2.6,3.5c0,0.8,0.1,1.7,0.3,2.9h61.9c0.2-1.1,0.3-2.1,0.3-2.9c0-1.9-0.9-3.1-2.6-3.5c-4.1-0.8-7.9-1.9-11.2-3.4
			c-3.3-1.5-5-3.7-5-6.6v-53.5c0-6.1,1.1-11.5,3.2-16.2c2.2-4.7,5-8.7,8.6-11.9c3.5-3.2,7.6-5.7,12.2-7.4c4.6-1.7,9.5-2.5,14.6-2.5
			c6.7,0,11.5,2.1,14.4,6.3c3,4.2,4.4,12.4,4.4,24.6v60.6c0,1.6-0.6,2.9-1.6,4c-1.1,1.1-2.4,2-4,2.8c-1.5,0.8-3.3,1.5-5.1,2.1
			c-1.9,0.6-3.7,1-5.4,1.2c-1.8,0.4-2.7,1.6-2.7,3.5c0,0.8,0.1,1.7,0.3,2.9h62.8c0.1-1.1,0.3-2.1,0.3-2.8v0
			C474,414.8,473.1,413.6,471.4,413.2z"/>
		<path class="st0" d="M585,410.1c-1,0-1.9,0.2-2.8,0.6c-0.9,0.4-2.4,0.6-4.6,0.6c-1.8,0-3.5-0.4-5.1-1.3c-1.7-0.9-3.2-2.7-4.6-5.4
			c-1-1.8-1.7-4.2-2.2-7.2c-0.5-3-0.8-8-0.8-14.9v-50.6c0-8.4-1-15.3-3.1-20.6c-2.1-5.3-5.1-9.5-9.1-12.6c-4-3.2-8.7-5.3-14.2-6.5
			c-5.5-1.2-11.7-1.8-18.6-1.8c-5.5,0-11.3,1-17.4,3.1c-6.1,2.1-11.7,4.8-16.9,8.1c-5.2,3.3-9.5,7.2-12.8,11.5
			c-3.3,4.3-5,8.6-5,12.9c0,4.1,1,6.2,2.9,6.2c1.2,0,2.6-0.2,4.4-0.6c1.8-0.4,3.2-0.8,4.4-1.2c4.9-1.4,8.4-2.6,10.5-3.6
			c2.1-1,3.4-2.5,4-4.7c1.2-3.7,2.3-7,3.5-9.7c1.2-2.8,2.5-5,4.1-6.6c1.6-1.7,3.6-2.9,5.9-3.7c2.3-0.8,5.2-1.2,8.5-1.2
			c9,0,15.3,3,18.8,9c3.6,6,5.3,13.6,5.3,22.8c0,3.9-0.4,6.6-1,7.9c-0.7,1.4-2.4,2.5-5.2,3.3c-2.1,0.8-4.7,1.5-7.5,2.2
			c-2.9,0.7-5.9,1.3-9.3,1.9c-5.9,1.4-12,3-18.4,5c-6.4,2-12.3,4.6-17.7,7.8c-5.4,3.2-9.8,7.3-13.2,12.4c-3.4,5-5.1,11.1-5.1,18.4
			c0,6.5,1.2,11.7,3.8,15.6c0.9,1.4,1.8,2.6,2.9,3.7c1.4,1.5,2.9,2.8,4.5,3.9v0c0.7,0.5,1.5,1,2.3,1.4c0.9,0.5,1.8,1,2.8,1.4
			c3.1,1.4,6.3,2.3,9.8,2.9c4.4,0.7,8.6,1,12.5,1c5,0,9.7-0.5,14-1.6c3.3-0.8,6.5-1.9,9.4-3.3c6.8-3.2,12.6-9.2,17.5-18c0,0,0,0,0,0
			c0.4,2.9,1.2,5.7,2.4,8.4c1.2,2.8,2.9,5.2,5.1,7.3c2.2,2.2,4.9,3.9,8,5.2c3.2,1.2,6.9,1.9,11.3,1.9c7.8,0,14.3-1.8,19.4-5.3
			c0,0,0,0,0,0C588.3,412.1,587.1,410.1,585,410.1z M540.2,375.7c0,4.9-0.8,9.4-2.5,13.5c-1.7,4.1-3.8,7.7-6.5,10.7
			c-2.7,3-5.8,5.4-9.5,7.1c-3.7,1.7-7.4,2.5-11.1,2.5c-5.7,0-10.5-2-14.3-5.9c-3.9-3.9-5.8-9.6-5.8-17.1c0-5.5,1.1-10.1,3.4-13.8
			c2.3-3.7,5.3-6.8,9-9.2c3.8-2.5,8-4.4,12.9-5.8c4.8-1.4,9.8-2.5,15-3.5l9.4-1.5l0,0V375.7z"/>
	</g>
	<path class="st0" d="M180.6,97.1h-58.9c-2.8,0-4.5-1.8-5.2-3.5c-0.7-1.7-0.7-4.1,1.2-6.1l26.4-26.4c3.3-3.3,3.3-8.5,0-11.8
		c-3.3-3.3-8.5-3.3-11.8,0L106,75.8c-1.9,1.9-4.4,1.9-6.1,1.2c-1.7-0.7-3.5-2.4-3.5-5.2V13.5c0-4.6-3.7-8.3-8.3-8.3
		c-4.6,0-8.3,3.7-8.3,8.3v58.3c0,2.8-1.8,4.5-3.5,5.2c-1.7,0.7-4.1,0.7-6.1-1.2L43.8,49.4c-3.3-3.3-8.5-3.3-11.8,0
		c-1.6,1.6-2.4,3.7-2.4,5.9s0.9,4.3,2.4,5.9l26.4,26.4c1.9,1.9,1.9,4.4,1.2,6.1c-0.7,1.7-2.4,3.5-5.2,3.5H36.7
		c-4.6,0-8.3,3.7-8.3,8.3c0,4.6,3.7,8.3,8.3,8.3h17.8c2.8,0,4.5,1.8,5.2,3.5c0.7,1.7,0.7,4.1-1.2,6.1l-41.3,41.3
		c-1.6,1.6-2.4,3.7-2.4,5.9c0,2.2,0.9,4.3,2.4,5.9c3.2,3.2,8.6,3.2,11.8,0l41.3-41.3c1.9-1.9,4.4-1.9,6.1-1.2
		c1.7,0.7,3.5,2.4,3.5,5.2v31.3c0,4.6,3.7,8.3,8.3,8.3c4.6,0,8.3-3.7,8.3-8.3v-31.3c0-2.8,1.8-4.5,3.5-5.2c1.7-0.7,4.1-0.7,6.1,1.2
		l41.9,41.9c1.6,1.6,3.7,2.4,5.9,2.4c2.2,0,4.3-0.9,5.9-2.4c1.6-1.6,2.4-3.7,2.4-5.9c0-2.2-0.9-4.3-2.4-5.9l-41.9-41.9
		c-1.9-1.9-1.9-4.4-1.2-6.1c0.7-1.7,2.4-3.5,5.2-3.5h58.9c4.6,0,8.3-3.7,8.3-8.3C189,100.9,185.2,97.1,180.6,97.1z"/>
</g>
</svg>
