<svg xmlns="http://www.w3.org/2000/svg" viewBox="0 0 925.87 232.52"><path fill="#fff" d="M129.29,64.79l77.07-29.26c1.56,1.17,3.03,2.88,3.74,4.71.57,1.44,1.47,4.32.38,5.51l-65.07,34.99c.2.46,4.3,1.28,5.12,1.47,28.35,6.67,57.05,11.95,85.59,17.77.41.06.65.24.89.58,1.62,2.3.9,12.47-2.72,12.65-28.97-2.78-58.02-4.67-87.06-6.63l69.54,69.76c-1.12,4.59-4.91,10.16-10.06,9.88l-43.03-33.24-33.32-24.05c6,30.16,13.1,60.09,20.17,90,.35,1.53-1.28,2.98-2.45,3.77-2.39,1.62-9.41,3.72-11.2.69-10.72-30.06-21.14-60.27-33.46-89.7-10.02,25.32-18.91,51.1-28.09,76.74-1.97,3.16-10.42.11-12.14-2.8l19.15-87.5-25.62,18.91-27.99,21.86c-3.16,1.6-9.16-5.56-7.12-8.05,18.26-17.15,36.24-34.64,53.4-52.89l-53.35,4.34c-2.53-.07-3.41-5.8-2.17-7.63l60.65-13.4-40.07-20.77c-2.79-1.02-.24-5.89,1.57-6.38l46.56,17.44-22.29-40.04c.3-1.46,4.26-4.25,5.59-2.45,6.28,8.85,12.5,17.76,18.97,26.48,2.04,2.75,4.24,6.03,6.42,8.58.23.26-.01.69.84.46l3.68-53.69c2.04-1.49,6.06-1.51,6.5,1.54.94,15.36,1.55,30.76,2.65,46.1.04.55-.28,1.06.55.91,6.51-8.63,13.14-17.19,19.55-25.91,6.79-9.23,13.31-18.77,20.12-27.91,2.38-.73,8.03,2.87,6.91,5.81-7.96,14.56-16.55,28.78-24.46,43.37-.45.84-4.27,7.62-3.97,7.94Z"/></svg>