<svg xmlns="http://www.w3.org/2000/svg" viewBox="0 0 925.87 232.52"><g fill="#fff">
    <path  d="M435.71,70.37c-2.06.42-3.6.62-4.62.62-2.67,0-4.62-.51-5.85-1.54-1.23-1.02-2.16-2.15-2.77-3.39-5.34-11.7-11.7-20.22-19.1-25.56-7.39-5.34-17.45-8.01-30.18-8.01-4.93,0-9.6.67-14.01,2-4.42,1.34-8.27,3.29-11.55,5.85-3.29,2.57-5.91,5.7-7.86,9.39-1.95,3.7-2.93,7.81-2.93,12.32,0,9.65,4.06,17.55,12.17,23.71,8.11,6.16,20.07,12.43,35.88,18.79,19.71,7.8,34.23,16.48,43.57,26.02,9.34,9.55,14.01,21.3,14.01,35.26,0,8.42-1.28,16.28-3.85,23.56-2.57,7.29-6.57,13.65-12.01,19.09-5.44,5.44-12.47,9.7-21.1,12.78-8.62,3.08-18.99,4.62-31.1,4.62-12.74,0-24.28-1.34-34.65-4-10.37-2.67-19.15-6.16-26.33-10.47-.62-8.62-1.54-16.94-2.77-24.95-1.23-8.01-2.67-16.01-4.31-24.02,1.43-.62,3.18-.92,5.24-.92,2.46,0,4.36.57,5.7,1.69,1.33,1.13,2.51,2.93,3.54,5.39,5.13,14.78,11.75,25.67,19.86,32.65,8.11,6.98,19.45,10.47,34.03,10.47,6.57,0,12.32-.92,17.25-2.77,4.92-1.85,9.03-4.41,12.32-7.7,3.28-3.28,5.74-6.98,7.39-11.09,1.64-4.1,2.46-8.52,2.46-13.24,0-10.67-3.65-19.1-10.93-25.26-7.29-6.16-17.71-11.7-31.26-16.63-8.83-3.28-16.84-6.72-24.02-10.32-7.19-3.59-13.35-7.75-18.47-12.47-5.13-4.72-9.09-10.21-11.86-16.48-2.77-6.26-4.16-13.71-4.16-22.33,0-7.59,1.39-14.73,4.16-21.41,2.77-6.67,6.78-12.47,12.01-17.4,5.24-4.93,11.55-8.83,18.94-11.7,7.39-2.87,15.71-4.31,24.95-4.31s18.89.92,27.72,2.77c8.82,1.85,18.79,4.93,29.87,9.24.41,6.16.97,12.78,1.69,19.86.72,7.08,1.69,13.71,2.93,19.86Z"/>
    <path  d="M507.46,223.74c-5.34-.41-10.79-.77-16.35-1.08-5.57-.31-11.15-.46-16.76-.46s-11.35.16-17.22.46c-5.87.31-11.37.66-16.5,1.08-.42-2.05-.62-3.69-.62-4.93,0-2.05.93-3.28,2.77-3.69,4.51-.82,8.73-2,12.63-3.54,3.9-1.54,5.85-3.95,5.85-7.24V38.65c0-6.57-1.29-11.03-3.85-13.39-2.57-2.36-7.44-3.85-14.63-4.47-2.67-.41-4-1.85-4-4.31,0-1.23.2-2.67.62-4.31,2.67,0,6.37-.16,11.09-.46,4.72-.31,9.04-.66,12.96-1.08,4.78-.62,9.04-1.43,12.77-2.46,3.73-1.02,6.44-1.54,8.1-1.54,1.87,0,3.12.41,3.74,1.23.62.82.93,1.95.93,3.39,0,3.49-.3,7.55-.92,12.17-.62,4.62-.93,10.01-.93,16.17v164.77c0,3.29,1.9,5.7,5.7,7.24,3.8,1.54,8.05,2.72,12.78,3.54,1.64.41,2.46,1.64,2.46,3.69,0,1.23-.2,2.88-.62,4.93Z"/>
    <path  d="M528.86,222.2c-3.53,0-7.11.05-10.73.16-3.62.1-6.97.25-10.05.46-3.08.2-5.76.41-8.01.62-2.26.2-3.69.31-4.32.31,0-.21-.1-.92-.3-2.15-.21-1.23-.31-2.16-.31-2.77,0-2.05.93-3.28,2.77-3.69,5.34-1.02,9.65-2.26,12.93-3.7,3.28-1.43,4.93-3.8,4.93-7.08v-83.77c0-6.16-1.08-10.57-3.24-13.24-2.15-2.67-6.83-4.31-14.01-4.93-2.67-.41-4-1.85-4-4.31,0-1.02.2-2.36.62-4,2.67,0,6.42-.16,11.25-.46,4.82-.31,8.78-.66,11.89-1.08,4.77-.82,9.02-1.69,12.76-2.62,3.74-.92,6.44-1.38,8.1-1.38,2.91,0,4.36,1.54,4.36,4.62,0,2.88-.3,6.31-.92,10.32-.62,4-.93,9.29-.93,15.86v85c0,3.29,1.59,5.65,4.77,7.08,3.19,1.44,7.65,2.67,13.4,3.7,1.64.41,2.47,1.64,2.47,3.69,0,.62-.06,1.54-.16,2.77-.1,1.23-.26,1.95-.46,2.15-.62,0-2.01-.1-4.16-.31-2.15-.21-4.77-.41-7.85-.62-3.08-.21-6.44-.36-10.06-.46-3.62-.11-7.2-.16-10.73-.16ZM510.84,37.11c0-4.93,1.69-9.19,5.08-12.78,3.39-3.59,7.65-5.39,12.78-5.39s9.03,1.8,12.32,5.39c3.28,3.6,4.93,7.85,4.93,12.78,0,5.34-1.65,9.65-4.93,12.94-3.29,3.28-7.39,4.92-12.32,4.92s-9.39-1.64-12.78-4.92c-3.39-3.28-5.08-7.6-5.08-12.94Z"/>
    <path  d="M679.93,119.64c.83-.62,2.68-2.56,5.56-5.85,2.89-3.28,6.64-6.77,11.28-10.47,4.64-3.69,10-7.08,16.07-10.16,6.08-3.08,12.62-4.62,19.63-4.62,12.36,0,21.12,3.65,26.27,10.93,5.15,7.29,7.72,17.4,7.72,30.34v74.84c0,3.08,1.85,5.39,5.55,6.93,3.69,1.54,7.8,2.72,12.32,3.54,1.85.41,2.77,1.64,2.77,3.69,0,1.23-.21,2.88-.62,4.93-5.34-.41-10.59-.77-15.73-1.08-5.15-.31-10.74-.46-16.76-.46-5.41,0-10.89.16-16.46.46-5.56.31-10.91.66-16.04,1.08-.41-2.05-.62-3.69-.62-4.93,0-2.05.93-3.28,2.77-3.69,1.85-.2,3.74-.62,5.7-1.23,1.95-.62,3.74-1.33,5.39-2.15,1.64-.82,3.03-1.8,4.16-2.93,1.13-1.13,1.69-2.51,1.69-4.16v-63.45c0-12.73-1.54-21.3-4.62-25.72-3.08-4.41-8.11-6.62-15.09-6.62-5.34,0-10.42.88-15.24,2.62-4.82,1.75-9.09,4.31-12.78,7.7-3.69,3.39-6.68,7.55-8.93,12.47-2.27,4.93-3.39,10.58-3.39,16.94v56.05c0,3.08,1.74,5.39,5.24,6.93,3.49,1.54,7.39,2.72,11.7,3.54,1.85.41,2.77,1.64,2.77,3.69,0,1.23-.21,2.88-.62,4.93-5.34-.41-10.53-.77-15.56-1.08-5.03-.31-10.32-.46-15.86-.46s-11.04.16-16.48.46c-5.45.31-10.83.66-16.17,1.08-.41-2.05-.62-3.69-.62-4.93,0-2.05.92-3.28,2.77-3.69,3.69-.62,7.44-1.69,11.24-3.23,3.8-1.54,5.7-3.95,5.7-7.24v-63.45c0-12.73-1.49-21.3-4.44-25.72-2.96-4.41-7.92-6.62-14.86-6.62-5.31,0-10.37.88-15.17,2.62-4.8,1.75-9.09,4.31-12.86,7.7-3.78,3.39-6.8,7.55-9.04,12.47-2.25,4.93-3.37,10.58-3.37,16.94v56.05c0,3.08,1.8,5.39,5.39,6.93,3.59,1.54,7.44,2.72,11.55,3.54,1.85.41,2.77,1.64,2.77,3.69,0,1.23-.21,2.88-.62,4.93-5.34-.41-10.59-.77-15.74-1.08-5.15-.31-10.63-.46-16.44-.46s-11.72.16-17.08.46c-5.35.31-10.59.66-15.73,1.08-.41-2.05-.62-3.69-.62-4.93,0-2.05.93-3.28,2.77-3.69,4.51-.82,8.62-2,12.32-3.54,3.7-1.54,5.55-3.95,5.55-7.24v-83.77c0-6.16-1.08-10.57-3.24-13.24-2.15-2.67-6.83-4.31-14.01-4.93-2.67-.41-4-1.85-4-4.31,0-1.02.2-2.36.62-4,2.67,0,6.42-.16,11.25-.46,4.82-.31,8.78-.66,11.89-1.08,4.77-.82,9.02-1.69,12.76-2.62,3.74-.92,6.44-1.38,8.1-1.38,2.91,0,4.36,1.54,4.36,4.62,0,2.88-.3,6.31-.92,10.32-.62,4-.93,9.29-.93,15.86.61-.62,2.35-2.56,5.22-5.85,2.86-3.28,6.6-6.77,11.2-10.47,4.59-3.69,9.87-7.03,15.8-10.01,5.93-2.97,12.48-4.46,19.64-4.46,10.64,0,18.56,2.72,23.78,8.16,5.22,5.44,8.33,13.09,9.36,22.94Z"/>
    <path  d="M903.21,213.89c2.26,0,3.49,2.16,3.7,6.47-5.34,3.69-12.12,5.54-20.33,5.54-4.54,0-8.48-.67-11.8-2-3.33-1.34-6.14-3.13-8.42-5.39-2.29-2.26-4.06-4.82-5.31-7.7-1.25-2.87-2.08-5.85-2.49-8.93-5.13,9.24-11.25,15.56-18.33,18.94-7.08,3.39-15.24,5.08-24.48,5.08-4.11,0-8.47-.36-13.09-1.08-4.62-.72-8.99-2.21-13.09-4.46-4.11-2.26-7.5-5.44-10.16-9.55-2.67-4.11-4-9.55-4-16.32,0-7.59,1.8-14.01,5.39-19.25,3.59-5.24,8.21-9.55,13.86-12.93,5.65-3.39,11.8-6.11,18.48-8.16,6.67-2.05,13.09-3.8,19.25-5.24,3.49-.62,6.72-1.28,9.7-2,2.98-.72,5.6-1.49,7.86-2.31,2.87-.82,4.66-1.95,5.39-3.39.72-1.43,1.08-4.2,1.08-8.31,0-9.65-1.85-17.6-5.55-23.87-3.69-6.26-10.27-9.39-19.71-9.39-3.5,0-6.47.41-8.94,1.23-2.46.82-4.52,2.11-6.16,3.85-1.65,1.75-3.08,4.06-4.32,6.93-1.23,2.88-2.46,6.26-3.69,10.16-.62,2.26-2,3.9-4.16,4.93-2.16,1.03-5.81,2.26-10.93,3.69-1.23.42-2.77.83-4.62,1.23-1.85.42-3.39.62-4.62.62-2.05,0-3.08-2.16-3.08-6.47s1.75-9.03,5.24-13.55c3.49-4.52,7.95-8.52,13.4-12.01,5.44-3.49,11.34-6.31,17.71-8.47,6.37-2.16,12.42-3.23,18.18-3.23,7.18,0,13.66.62,19.44,1.85,5.78,1.23,10.74,3.49,14.9,6.77,4.16,3.29,7.32,7.7,9.51,13.24,2.18,5.54,3.27,12.73,3.27,21.56v52.97c0,7.19.26,12.37.77,15.56.51,3.18,1.28,5.7,2.31,7.54,1.43,2.88,3.03,4.78,4.77,5.7,1.74.92,3.54,1.39,5.39,1.39,2.26,0,3.85-.2,4.77-.62.93-.41,1.9-.62,2.93-.62ZM856.39,153.83l-9.91,1.54c-5.37,1.03-10.59,2.26-15.65,3.69-5.06,1.44-9.55,3.44-13.47,6.01-3.93,2.57-7.08,5.8-9.45,9.7-2.38,3.9-3.56,8.73-3.56,14.48,0,7.81,2.01,13.76,6.04,17.86,4.03,4.11,9.04,6.16,15.03,6.16,3.92,0,7.8-.87,11.62-2.62,3.82-1.74,7.12-4.2,9.91-7.39,2.79-3.18,5.06-6.93,6.82-11.24,1.75-4.31,2.63-9.03,2.63-14.17v-24.02Z"/>
  </g></svg>