<svg xmlns="http://www.w3.org/2000/svg" viewBox="0 0 110 133">
  <path fill="#000" d="M58.8,38.61l39.68-15.07c.8.6,1.56,1.48,1.93,2.42.29.74.76,2.23.2,2.84l-33.5,18.01c.1.24,2.21.66,2.64.76,14.6,3.43,29.37,6.15,44.07,9.15.21.03.34.13.46.3.83,1.19.46,6.42-1.4,6.51-14.91-1.43-29.87-2.4-44.82-3.41l35.8,35.91c-.58,2.36-2.53,5.23-5.18,5.09l-22.15-17.11-17.15-12.38c3.09,15.53,6.74,30.93,10.38,46.34.18.79-.66,1.53-1.26,1.94-1.23.83-4.84,1.91-5.77.36-5.52-15.48-10.88-31.03-17.23-46.18-5.16,13.04-9.74,26.31-14.46,39.51-1.02,1.62-5.36.05-6.25-1.44l9.86-45.05-13.19,9.74-14.41,11.25c-1.63.83-4.72-2.86-3.67-4.14,9.4-8.83,18.66-17.83,27.49-27.23l-27.47,2.24c-1.3-.04-1.75-2.99-1.11-3.93l31.22-6.9-20.63-10.69c-1.44-.53-.12-3.03.81-3.29l23.97,8.98-11.48-20.62c.15-.75,2.19-2.19,2.88-1.26,3.24,4.56,6.44,9.14,9.77,13.63,1.05,1.41,2.18,3.11,3.31,4.42.12.14,0,.36.43.24l1.89-27.64c1.05-.77,3.12-.77,3.35.79.49,7.91.8,15.84,1.37,23.74.02.28-.15.55.28.47,3.35-4.45,6.77-8.85,10.06-13.34,3.49-4.75,6.85-9.66,10.36-14.37,1.23-.38,4.13,1.48,3.56,2.99-4.1,7.49-8.52,14.82-12.59,22.33-.23.43-2.2,3.92-2.04,4.09Z"/>
</svg>
