<?xml version="1.0" encoding="UTF-8"?>
<svg id="Layer_1" xmlns="http://www.w3.org/2000/svg" version="1.1" viewBox="0 0 454.06 132.14">
  <!-- Generator: Adobe Illustrator 30.2.1, SVG Export Plug-In . SVG Version: 2.1.1 Build 1)  -->
  <g>
    <path d="M206.7,41.97c-1.06.21-1.85.32-2.38.32-1.38,0-2.38-.26-3.01-.79-.63-.53-1.11-1.11-1.43-1.74-2.75-6.02-6.02-10.41-9.83-13.16-3.8-2.75-8.99-4.12-15.54-4.12-2.54,0-4.94.34-7.21,1.03-2.28.69-4.26,1.69-5.95,3.01-1.69,1.32-3.04,2.93-4.04,4.84-1.01,1.9-1.51,4.02-1.51,6.34,0,4.97,2.09,9.04,6.26,12.21,4.18,3.17,10.33,6.4,18.47,9.67,10.15,4.02,17.62,8.48,22.43,13.4,4.81,4.92,7.21,10.97,7.21,18.15,0,4.34-.66,8.38-1.98,12.13-1.32,3.75-3.38,7.03-6.19,9.83-2.8,2.8-6.42,4.99-10.86,6.58-4.44,1.58-9.78,2.38-16.01,2.38-6.56,0-12.5-.69-17.84-2.06-5.34-1.37-9.86-3.17-13.56-5.39-.32-4.44-.79-8.72-1.43-12.84-.63-4.12-1.37-8.24-2.22-12.37.74-.32,1.64-.48,2.7-.48,1.27,0,2.24.29,2.93.87.69.58,1.29,1.51,1.82,2.77,2.64,7.61,6.05,13.21,10.23,16.81,4.18,3.6,10.01,5.39,17.52,5.39,3.38,0,6.34-.48,8.88-1.43,2.54-.95,4.65-2.27,6.34-3.96,1.69-1.69,2.96-3.59,3.81-5.71.84-2.11,1.27-4.38,1.27-6.82,0-5.5-1.88-9.83-5.63-13-3.75-3.17-9.12-6.02-16.09-8.56-4.54-1.69-8.67-3.46-12.37-5.31-3.7-1.85-6.87-3.99-9.51-6.42-2.64-2.43-4.68-5.26-6.11-8.48-1.42-3.22-2.14-7.06-2.14-11.49,0-3.91.72-7.58,2.14-11.02,1.43-3.43,3.49-6.42,6.19-8.96,2.7-2.54,5.95-4.54,9.75-6.02,3.81-1.48,8.09-2.22,12.84-2.22s9.72.48,14.27,1.43c4.54.95,9.67,2.54,15.38,4.76.21,3.17.5,6.58.87,10.23.37,3.65.87,7.06,1.51,10.23Z"/>
    <path d="M243.64,120.94c-2.75-.21-5.55-.4-8.42-.55-2.87-.16-5.74-.24-8.63-.24s-5.84.08-8.86.24c-3.02.16-5.86.34-8.5.55-.22-1.06-.32-1.9-.32-2.54,0-1.06.48-1.69,1.43-1.9,2.32-.42,4.49-1.03,6.5-1.82,2.01-.79,3.01-2.03,3.01-3.73V25.64c0-3.38-.66-5.68-1.98-6.9-1.32-1.22-3.83-1.98-7.53-2.3-1.38-.21-2.06-.95-2.06-2.22,0-.63.1-1.37.32-2.22,1.38,0,3.28-.08,5.71-.24,2.43-.16,4.66-.34,6.67-.56,2.46-.32,4.65-.74,6.57-1.27,1.92-.53,3.31-.79,4.17-.79.96,0,1.6.21,1.92.63.32.42.48,1.01.48,1.74,0,1.8-.16,3.88-.47,6.26s-.48,5.15-.48,8.33v84.83c0,1.69.98,2.93,2.93,3.73,1.95.79,4.15,1.4,6.58,1.82.85.21,1.27.85,1.27,1.9,0,.64-.1,1.48-.32,2.54Z"/>
    <path d="M254.66,120.14c-1.82,0-3.66.02-5.53.08-1.87.05-3.59.13-5.18.24-1.59.1-2.96.21-4.12.32-1.16.1-1.9.16-2.22.16,0-.11-.05-.48-.16-1.11-.11-.63-.16-1.11-.16-1.43,0-1.06.48-1.69,1.43-1.9,2.75-.53,4.97-1.16,6.66-1.9,1.69-.74,2.54-1.95,2.54-3.65v-43.13c0-3.17-.56-5.44-1.67-6.82-1.11-1.37-3.52-2.22-7.21-2.54-1.38-.21-2.06-.95-2.06-2.22,0-.53.1-1.21.32-2.06,1.38,0,3.3-.08,5.79-.24,2.48-.16,4.52-.34,6.12-.56,2.46-.42,4.65-.87,6.57-1.35,1.92-.48,3.31-.71,4.17-.71,1.5,0,2.24.79,2.24,2.38,0,1.48-.16,3.25-.47,5.31-.32,2.06-.48,4.78-.48,8.17v43.76c0,1.69.82,2.91,2.46,3.65,1.64.74,3.94,1.38,6.9,1.9.85.21,1.27.85,1.27,1.9,0,.32-.03.79-.08,1.43-.05.63-.13,1-.24,1.11-.32,0-1.03-.05-2.14-.16-1.11-.11-2.46-.21-4.04-.32-1.58-.11-3.31-.19-5.18-.24-1.87-.06-3.71-.08-5.53-.08ZM245.38,24.85c0-2.54.87-4.73,2.62-6.58,1.74-1.85,3.94-2.77,6.58-2.77s4.65.93,6.34,2.77c1.69,1.85,2.54,4.04,2.54,6.58,0,2.75-.85,4.97-2.54,6.66-1.69,1.69-3.81,2.54-6.34,2.54s-4.84-.84-6.58-2.54c-1.74-1.69-2.62-3.91-2.62-6.66Z"/>
    <path d="M332.43,67.34c.42-.32,1.38-1.32,2.86-3.01,1.49-1.69,3.42-3.49,5.81-5.39,2.39-1.9,5.15-3.65,8.27-5.23,3.13-1.58,6.5-2.38,10.11-2.38,6.36,0,10.87,1.88,13.53,5.63,2.65,3.75,3.98,8.96,3.98,15.62v38.53c0,1.58.95,2.77,2.86,3.57,1.9.79,4.02,1.4,6.34,1.82.95.21,1.43.85,1.43,1.9,0,.64-.11,1.48-.32,2.54-2.75-.21-5.45-.4-8.1-.55-2.65-.16-5.53-.24-8.63-.24-2.78,0-5.61.08-8.47.24-2.86.16-5.62.34-8.26.55-.21-1.06-.32-1.9-.32-2.54,0-1.06.48-1.69,1.43-1.9.95-.1,1.93-.32,2.93-.64,1-.32,1.93-.69,2.77-1.11.85-.42,1.56-.92,2.14-1.51.58-.58.87-1.29.87-2.14v-32.66c0-6.55-.79-10.97-2.38-13.24-1.58-2.27-4.18-3.41-7.77-3.41-2.75,0-5.36.45-7.85,1.35-2.48.9-4.68,2.22-6.58,3.96-1.9,1.74-3.44,3.88-4.6,6.42-1.17,2.54-1.74,5.45-1.74,8.72v28.86c0,1.58.9,2.77,2.7,3.57,1.8.79,3.81,1.4,6.02,1.82.95.21,1.43.85,1.43,1.9,0,.64-.11,1.48-.32,2.54-2.75-.21-5.42-.4-8.01-.55-2.59-.16-5.31-.24-8.17-.24s-5.69.08-8.48.24c-2.8.16-5.58.34-8.33.55-.21-1.06-.32-1.9-.32-2.54,0-1.06.47-1.69,1.43-1.9,1.9-.32,3.83-.87,5.79-1.66,1.95-.79,2.93-2.03,2.93-3.73v-32.66c0-6.55-.76-10.97-2.29-13.24-1.53-2.27-4.08-3.41-7.65-3.41-2.73,0-5.34.45-7.81,1.35-2.47.9-4.68,2.22-6.62,3.96-1.95,1.74-3.5,3.88-4.66,6.42-1.16,2.54-1.73,5.45-1.73,8.72v28.86c0,1.58.92,2.77,2.77,3.57,1.85.79,3.83,1.4,5.95,1.82.95.21,1.43.85,1.43,1.9,0,.64-.11,1.48-.32,2.54-2.75-.21-5.45-.4-8.1-.55-2.65-.16-5.47-.24-8.47-.24s-6.03.08-8.79.24c-2.75.16-5.45.34-8.1.55-.21-1.06-.32-1.9-.32-2.54,0-1.06.48-1.69,1.43-1.9,2.32-.42,4.44-1.03,6.34-1.82,1.9-.79,2.86-2.03,2.86-3.73v-43.13c0-3.17-.56-5.44-1.67-6.82-1.11-1.37-3.52-2.22-7.21-2.54-1.38-.21-2.06-.95-2.06-2.22,0-.53.1-1.21.32-2.06,1.38,0,3.3-.08,5.79-.24,2.48-.16,4.52-.34,6.12-.56,2.46-.42,4.65-.87,6.57-1.35,1.92-.48,3.31-.71,4.17-.71,1.5,0,2.24.79,2.24,2.38,0,1.48-.16,3.25-.47,5.31-.32,2.06-.48,4.78-.48,8.17.31-.32,1.21-1.32,2.69-3.01,1.47-1.69,3.4-3.49,5.77-5.39,2.37-1.9,5.08-3.62,8.14-5.15,3.05-1.53,6.43-2.3,10.11-2.3,5.48,0,9.56,1.4,12.24,4.2,2.69,2.8,4.29,6.74,4.82,11.81Z"/>
    <path d="M447.38,115.86c1.16,0,1.8,1.11,1.9,3.33-2.75,1.9-6.24,2.85-10.47,2.85-2.34,0-4.37-.34-6.08-1.03-1.72-.69-3.16-1.61-4.34-2.78-1.18-1.16-2.09-2.48-2.73-3.96-.64-1.48-1.07-3.01-1.28-4.6-2.64,4.76-5.79,8.01-9.44,9.75-3.65,1.74-7.85,2.62-12.61,2.62-2.11,0-4.36-.19-6.74-.56-2.38-.37-4.63-1.14-6.74-2.3-2.11-1.16-3.86-2.8-5.23-4.92-1.38-2.11-2.06-4.92-2.06-8.4,0-3.91.92-7.21,2.77-9.91,1.85-2.7,4.23-4.92,7.14-6.66,2.91-1.74,6.08-3.14,9.51-4.2,3.43-1.06,6.74-1.96,9.91-2.7,1.8-.32,3.46-.66,4.99-1.03,1.53-.37,2.88-.77,4.04-1.19,1.48-.42,2.4-1,2.77-1.74.37-.74.56-2.16.56-4.28,0-4.97-.95-9.06-2.86-12.29-1.9-3.22-5.29-4.84-10.15-4.84-1.8,0-3.33.21-4.6.63-1.27.42-2.33,1.08-3.17,1.98-.85.9-1.58,2.09-2.22,3.57-.63,1.48-1.27,3.22-1.9,5.23-.32,1.16-1.03,2.01-2.14,2.54-1.11.53-2.99,1.16-5.63,1.9-.63.21-1.43.42-2.38.63-.95.21-1.74.32-2.38.32-1.06,0-1.58-1.11-1.58-3.33s.9-4.65,2.7-6.98c1.8-2.32,4.09-4.38,6.9-6.18,2.8-1.8,5.84-3.25,9.12-4.36,3.28-1.11,6.39-1.66,9.36-1.66,3.7,0,7.03.32,10.01.95,2.97.63,5.53,1.8,7.67,3.49,2.14,1.69,3.77,3.96,4.9,6.82,1.12,2.85,1.68,6.55,1.68,11.1v27.27c0,3.7.13,6.37.4,8.01.26,1.64.66,2.93,1.19,3.88.74,1.48,1.56,2.46,2.46,2.93.9.48,1.82.71,2.77.71,1.16,0,1.98-.1,2.46-.32.48-.21.98-.32,1.51-.32ZM423.28,84.94l-5.1.79c-2.76.53-5.45,1.16-8.06,1.9-2.61.74-4.92,1.77-6.94,3.09-2.02,1.32-3.64,2.99-4.87,4.99-1.23,2.01-1.83,4.49-1.83,7.45,0,4.02,1.04,7.08,3.11,9.2,2.07,2.12,4.65,3.17,7.74,3.17,2.02,0,4.02-.45,5.98-1.35,1.97-.9,3.67-2.16,5.1-3.8,1.44-1.64,2.6-3.57,3.51-5.79.9-2.22,1.36-4.65,1.36-7.29v-12.37Z"/>
  </g>
  <path d="M58.8,38.61l39.68-15.07c.8.6,1.56,1.48,1.93,2.42.29.74.76,2.23.2,2.84l-33.5,18.01c.1.24,2.21.66,2.64.76,14.6,3.43,29.37,6.15,44.07,9.15.21.03.34.13.46.3.83,1.19.46,6.42-1.4,6.51-14.91-1.43-29.87-2.4-44.82-3.41l35.8,35.91c-.58,2.36-2.53,5.23-5.18,5.09l-22.15-17.11-17.15-12.38c3.09,15.53,6.74,30.93,10.38,46.34.18.79-.66,1.53-1.26,1.94-1.23.83-4.84,1.91-5.77.36-5.52-15.48-10.88-31.03-17.23-46.18-5.16,13.04-9.74,26.31-14.46,39.51-1.02,1.62-5.36.05-6.25-1.44l9.86-45.05-13.19,9.74-14.41,11.25c-1.63.83-4.72-2.86-3.67-4.14,9.4-8.83,18.66-17.83,27.49-27.23l-27.47,2.24c-1.3-.04-1.75-2.99-1.11-3.93l31.22-6.9-20.63-10.69c-1.44-.53-.12-3.03.81-3.29l23.97,8.98-11.48-20.62c.15-.75,2.19-2.19,2.88-1.26,3.24,4.56,6.44,9.14,9.77,13.63,1.05,1.41,2.18,3.11,3.31,4.42.12.14,0,.36.43.24l1.89-27.64c1.05-.77,3.12-.77,3.35.79.49,7.91.8,15.84,1.37,23.74.02.28-.15.55.28.47,3.35-4.45,6.77-8.85,10.06-13.34,3.49-4.75,6.85-9.66,10.36-14.37,1.23-.38,4.13,1.48,3.56,2.99-4.1,7.49-8.52,14.82-12.59,22.33-.23.43-2.2,3.92-2.04,4.09Z"/>
</svg>